# xmcd CD database file
#
# Track frame offsets:
#	187
#	20200
#	41955
#	56442
#	105777
#	121772
#	134937
#	159797
#
# Disc length: 2421 seconds
#
# Revision: 0
# Processed by: cddbd v1.5.1PL0 Copyright (c) Steve Scherf et al.
# Submitted via: CDex 1.51
#
DISCID=66097308
DTITLE=Christian Hastings - Christian Hastings and the Red Eye Blues
DYEAR=1900
DGENRE=Blues
TTITLE0=Fallin for you
TTITLE1=A Lover lie you
TTITLE2=Calling For Rain
TTITLE3=Driving Me Insane
TTITLE4=TKO
TTITLE5=Conscience Blues
TTITLE6=Cold Shoulder
TTITLE7=Today, I'll have to miss
EXTD=
EXTT0=
EXTT1=
EXTT2=
EXTT3=
EXTT4=
EXTT5=
EXTT6=
EXTT7=
PLAYORDER=
